<?xml version="1.0" encoding="utf-8"?>
<!-- Generator: Adobe Illustrator 25.3.0, SVG Export Plug-In . SVG Version: 6.00 Build 0)  -->
<svg version="1.1" xmlns="http://www.w3.org/2000/svg" xmlns:xlink="http://www.w3.org/1999/xlink" x="0px" y="0px"
	 viewBox="0 0 111.5 106.5" style="enable-background:new 0 0 111.5 106.5;" xml:space="preserve">
<style type="text/css">
	.st0{fill:#FFFFFF;}
	.st1{fill:url(#SVGID_1_);}
</style>
<g id="Layer_2">
	<path class="st0" d="M82.1,96H27.1c-9.6,0-17.4-7.8-17.4-17.4V26.8c0-9.6,7.8-17.4,17.4-17.4h54.9c9.6,0,17.4,7.8,17.4,17.4v51.8
		C99.5,88.2,91.7,96,82.1,96z"/>
</g>
<g id="Layer_1">
	
		<linearGradient id="SVGID_1_" gradientUnits="userSpaceOnUse" x1="19.9009" y1="55.2188" x2="91.8632" y2="55.2188" gradientTransform="matrix(1 0 0 -1 0 108.3616)">
		<stop  offset="0" style="stop-color:#2B88D9"/>
		<stop  offset="1" style="stop-color:#26E0F5"/>
	</linearGradient>
	<path class="st1" d="M82.3,37.7h-7c0,0,0,4-0.1,4.8h7c2.6,0,4.8,2.1,4.8,4.8v11.9c0,2.6-2.1,4.8-4.8,4.8H69c-2.8,0-4.8-0.3-6.4-0.8
		c-2.2-0.7-3.3-2-3.8-3.7c-1.1,0-2.1,0-2.9,0c-0.6,0-1.3,0-1.9,0c0.8,3.7,2.9,7.1,8.7,8.5c1.2,0.3,2.5,0.5,4,0.6v11
		c0,2.6-2.1,4.8-4.8,4.8h-12c-2.6,0-4.8-2.1-4.8-4.8V66.2c0-10.7,4-10.7,10.7-10.7c6.5,0,15.5,0,15.5-15.5V26.6
		c0-5.3-4.3-9.6-9.6-9.6l-11.9,0.1c-5.3,0-9.6,4.3-9.6,9.6v10.9H29.5c-5.3,0-9.6,4.3-9.6,9.6v11.9c0,5.3,4.3,9.6,9.6,9.6h7v-2.4
		c0-0.8,0-1.6,0.1-2.4h-7c-2.6,0-4.8-2.1-4.8-4.8V47.2c0-2.6,2.1-4.8,4.8-4.8h13.3c2.8,0,4.8,0.3,6.4,0.8c2.2,0.7,3.3,2,3.8,3.7
		c1.1,0,2.1,0,2.9,0c0.6,0,1.3,0,1.9,0c-0.8-3.7-2.9-7.1-8.7-8.5c-1.2-0.3-2.5-0.5-4-0.6v-11c0-2.6,2.1-4.8,4.8-4.8h11.9
		c2.6,0,4.8,2.1,4.8,4.8v13.3c0,10.7-4,10.7-10.7,10.7c-6.5,0-15.5,0-15.5,15.5v13.3c0,5.3,4.3,9.6,9.6,9.6h11.9
		c5.3,0,9.6-4.3,9.6-9.6V68.7h10.9c5.3,0,9.6-4.3,9.6-9.6v-12C91.9,42,87.6,37.7,82.3,37.7z"/>
</g>
</svg>
